<?xml version="1.0" encoding="UTF-8" standalone="no"?>
<svg width="16px" height="16px" viewBox="0 0 16 16" version="1.1" xmlns="http://www.w3.org/2000/svg" xmlns:xlink="http://www.w3.org/1999/xlink">
    <!-- Generator: Sketch 39.1 (31720) - http://www.bohemiancoding.com/sketch -->
    <title>Clock</title>
    <desc>Created with Sketch.</desc>
    <defs></defs>
    <g id="Page-1" stroke="none" stroke-width="1" fill="none" fill-rule="evenodd">
        <g id="运行中的策略_多策略操作" transform="translate(-1285.000000, -810.000000)" fill="#FFFFFF">
            <g id="Bottom-Bar" transform="translate(0.000000, 803.000000)">
                <path d="M1293,7 C1288.57895,7 1285,10.5789474 1285,15 C1285,19.4210526 1288.57895,23 1293,23 C1297.42105,23 1301,19.4210526 1301,15 C1301,10.5789474 1297.42105,7 1293,7 L1293,7 Z M1293.42105,22.1368421 L1293.42105,21.7157895 C1293.42105,21.4842105 1293.23158,21.2947368 1293,21.2947368 C1292.76842,21.2947368 1292.57895,21.4842105 1292.57895,21.7157895 L1292.57895,22.1368421 C1288.95789,21.9263158 1286.07368,19.0210526 1285.86316,15.4210526 L1286.28421,15.4210526 C1286.51579,15.4210526 1286.70526,15.2315789 1286.70526,15 C1286.70526,14.7684211 1286.51579,14.5789474 1286.28421,14.5789474 L1285.86316,14.5789474 C1286.07368,10.9578947 1288.97895,8.07368421 1292.57895,7.86315789 L1292.57895,8.28421053 C1292.57895,8.51578947 1292.76842,8.70526316 1293,8.70526316 C1293.23158,8.70526316 1293.42105,8.51578947 1293.42105,8.28421053 L1293.42105,7.86315789 C1297.04211,8.07368421 1299.92632,10.9789474 1300.13684,14.5789474 L1299.71579,14.5789474 C1299.48421,14.5789474 1299.29474,14.7684211 1299.29474,15 C1299.29474,15.2315789 1299.48421,15.4210526 1299.71579,15.4210526 L1300.13684,15.4210526 C1299.92632,19.0421053 1297.04211,21.9263158 1293.42105,22.1368421 L1293.42105,22.1368421 Z M1295.52632,17.5263158 C1295.35789,17.6947368 1295.10526,17.6947368 1294.93684,17.5263158 L1292.70526,15.2947368 C1292.72632,15.3157895 1292.57895,15.2105263 1292.57895,15 L1292.57895,9.94736842 C1292.57895,9.71578947 1292.76842,9.52631579 1293,9.52631579 C1293.23158,9.52631579 1293.42105,9.71578947 1293.42105,9.94736842 L1293.42105,14.8315789 L1295.52632,16.9368421 C1295.69474,17.1052632 1295.69474,17.3578947 1295.52632,17.5263158 L1295.52632,17.5263158 Z" id="Clock"></path>
            </g>
        </g>
    </g>
</svg>