<?xml version="1.0" encoding="UTF-8"?>
<svg width="8px" height="8px" viewBox="0 0 8 8" version="1.1" xmlns="http://www.w3.org/2000/svg" xmlns:xlink="http://www.w3.org/1999/xlink">
    <!-- Generator: Sketch 43 (38999) - http://www.bohemiancoding.com/sketch -->
    <title>Group 59 Copy</title>
    <desc>Created with Sketch.</desc>
    <defs></defs>
    <g id="指令管理" stroke="none" stroke-width="1" fill="none" fill-rule="evenodd">
        <g id="Group-59-Copy">
            <path d="M3.75,0 C1.66071429,0 0,1.66071429 0,3.75 C0,5.83928571 1.66071429,7.5 3.75,7.5 C5.83928571,7.5 7.5,5.83928571 7.5,3.75 C7.5,1.66071429 5.83928571,0 3.75,0 L3.75,0 Z" id="Page-1-Copy-2" fill="#F44336"></path>
            <path d="M3.75,6.32142857 C3.53571429,6.32142857 3.375,6.16071429 3.375,5.94642857 C3.375,5.73214286 3.53571429,5.57142857 3.75,5.57142857 C3.96428571,5.57142857 4.125,5.73214286 4.125,5.94642857 C4.125,6.16071429 3.96428571,6.32142857 3.75,6.32142857 L3.75,6.32142857 Z" id="Path" stroke="#FFFFFF" stroke-width="0.25" fill="#FFFFFF"></path>
            <path d="M3.48214286,1.44915675 C3.48214286,1.31894841 3.58928571,1.23214286 3.75,1.23214286 C3.91071429,1.23214286 4.01785714,1.31894841 4.01785714,1.44915675 L4.01785714,4.14012897 C4.01785714,4.2703373 3.91071429,4.35714286 3.75,4.35714286 C3.58928571,4.35714286 3.48214286,4.2703373 3.48214286,4.14012897 L3.48214286,1.44915675 Z" id="Path" stroke="#FFFFFF" stroke-width="0.25" fill="#FFFFFF"></path>
        </g>
    </g>
</svg>