<?xml version="1.0" encoding="UTF-8" standalone="no"?>
<svg width="16px" height="16px" viewBox="0 0 16 16" version="1.1" xmlns="http://www.w3.org/2000/svg" xmlns:xlink="http://www.w3.org/1999/xlink">
    <!-- Generator: Sketch 39.1 (31720) - http://www.bohemiancoding.com/sketch -->
    <title>Artboard</title>
    <desc>Created with Sketch.</desc>
    <defs></defs>
    <g id="Page-1" stroke="none" stroke-width="1" fill="none" fill-rule="evenodd">
        <g id="Artboard" fill="#FFFFFF">
            <path d="M13.798,11.9145 C12.8405,11.596 11.811,11.358 10.7275,11.204 C10.875,10.3375 10.9535,9.4295 10.9785,8.5 L14.981,8.5 C14.8915,9.7605 14.468,10.927 13.798,11.9145 L13.798,11.9145 L13.798,11.9145 Z M9.717,14.7795 C10.05,13.975 10.3225,13.1055 10.532,12.1895 C11.431,12.3225 12.293,12.519 13.1095,12.777 C12.2075,13.7385 11.0365,14.446 9.717,14.7795 L9.717,14.7795 L9.717,14.7795 Z M8.4855,14.9755 C8.3245,14.987 8.164,15 8,15 C7.836,15 7.676,14.987 7.5145,14.9755 C7.089,14.0895 6.7445,13.1035 6.4895,12.057 C6.9865,12.0135 7.49,11.988 8,11.988 C8.51,11.988 9.0135,12.0135 9.511,12.057 C9.2555,13.1035 8.911,14.0895 8.4855,14.9755 L8.4855,14.9755 L8.4855,14.9755 Z M2.8905,12.777 C3.707,12.519 4.569,12.3225 5.468,12.1895 C5.6775,13.1055 5.95,13.975 6.283,14.7795 C4.9635,14.446 3.793,13.7385 2.8905,12.777 L2.8905,12.777 L2.8905,12.777 Z M2.202,11.9145 C1.532,10.927 1.1085,9.7605 1.019,8.5 L5.0215,8.5 C5.0465,9.4295 5.125,10.3375 5.2725,11.204 C4.189,11.358 3.1595,11.596 2.202,11.9145 L2.202,11.9145 L2.202,11.9145 Z M2.202,4.0855 C3.1595,4.404 4.189,4.6425 5.2725,4.796 C5.125,5.6625 5.0465,6.5705 5.0215,7.5 L1.019,7.5 C1.1085,6.2395 1.532,5.073 2.202,4.0855 L2.202,4.0855 L2.202,4.0855 Z M6.283,1.2205 C5.95,2.025 5.6775,2.8945 5.468,3.8105 C4.569,3.678 3.707,3.481 2.8905,3.223 C3.793,2.2615 4.9635,1.554 6.283,1.2205 L6.283,1.2205 L6.283,1.2205 Z M7.5145,1.0245 C7.676,1.0135 7.836,1 8,1 C8.164,1 8.3245,1.0135 8.4855,1.0245 C8.911,1.9105 9.2555,2.897 9.511,3.943 C9.0135,3.9865 8.51,4.012 8,4.012 C7.49,4.012 6.9865,3.9865 6.4895,3.943 C6.7445,2.897 7.089,1.9105 7.5145,1.0245 L7.5145,1.0245 L7.5145,1.0245 Z M9.977,8.5 C9.95,9.3805 9.87,10.2465 9.7195,11.078 C9.1565,11.029 8.584,11 8,11 C7.416,11 6.8435,11.029 6.281,11.078 C6.13,10.2465 6.05,9.3805 6.0235,8.5 L9.977,8.5 L9.977,8.5 L9.977,8.5 Z M6.0235,7.5 C6.05,6.6195 6.13,5.7535 6.281,4.922 C6.8435,4.971 7.416,5 8,5 C8.584,5 9.1565,4.971 9.719,4.922 C9.87,5.7535 9.95,6.6195 9.977,7.5 L6.0235,7.5 L6.0235,7.5 L6.0235,7.5 Z M13.1095,3.223 C12.293,3.481 11.431,3.678 10.532,3.8105 C10.3225,2.8945 10.05,2.025 9.717,1.2205 C11.0365,1.554 12.2075,2.2615 13.1095,3.223 L13.1095,3.223 L13.1095,3.223 Z M13.798,4.0855 C14.468,5.073 14.8915,6.2395 14.981,7.5 L10.9785,7.5 C10.9535,6.5705 10.875,5.6625 10.7275,4.796 C11.811,4.6425 12.8405,4.404 13.798,4.0855 L13.798,4.0855 L13.798,4.0855 Z M8,0 C3.582,0 0,3.5815 0,8 C0,12.4185 3.582,16 8,16 C12.418,16 16,12.4185 16,8 C16,3.5815 12.418,0 8,0 L8,0 L8,0 Z" id="globe"></path>
        </g>
    </g>
</svg>