<?xml version="1.0" encoding="UTF-8" standalone="no"?>
<svg width="8px" height="8px" viewBox="0 0 8 8" version="1.1" xmlns="http://www.w3.org/2000/svg" xmlns:xlink="http://www.w3.org/1999/xlink">
    <!-- Generator: Sketch 39.1 (31720) - http://www.bohemiancoding.com/sketch -->
    <title>Group 18</title>
    <desc>Created with Sketch.</desc>
    <defs></defs>
    <g id="Page-1" stroke="none" stroke-width="1" fill="none" fill-rule="evenodd">
        <g id="运行中的策略_多策略操作" transform="translate(-1125.000000, -276.000000)">
            <g id="Group-18" transform="translate(1125.000000, 276.000000)">
                <circle id="Oval-2" fill="#E74C3C" cx="4" cy="4" r="4"></circle>
                <path d="M3.88469185,1.33333333 C3.30417495,1.33333333 2.84294235,1.48717949 2.50894632,1.8021978 C2.16699801,2.10989011 2,2.52747253 2,3.06227106 L2.84294235,3.06227106 C2.84294235,2.73992674 2.91451292,2.48351648 3.05765408,2.30769231 C3.2166998,2.1025641 3.47912525,2 3.83697813,2 C4.12326044,2 4.34592445,2.07326007 4.50497018,2.21978022 C4.65606362,2.36630037 4.73558648,2.56410256 4.73558648,2.82051282 C4.73558648,3.01098901 4.6640159,3.18681319 4.52087475,3.35531136 L4.38568588,3.49450549 C3.89264414,3.8974359 3.59045726,4.1978022 3.47912525,4.4029304 C3.37574553,4.59340659 3.32803181,4.82783883 3.32803181,5.0989011 L3.32803181,5.22344322 L4.17892644,5.22344322 L4.17892644,5.0989011 C4.17892644,4.91575092 4.21868787,4.75457875 4.30616302,4.60805861 C4.3777336,4.47619048 4.48906561,4.35164835 4.63220676,4.23443223 C5.0139165,3.93406593 5.23658052,3.74358974 5.30815109,3.66300366 C5.49900596,3.42857143 5.60238569,3.12820513 5.60238569,2.76923077 C5.60238569,2.32967033 5.44333996,1.97802198 5.1332008,1.72161172 C4.81510934,1.45787546 4.40159046,1.33333333 3.88469185,1.33333333 L3.88469185,1.33333333 Z M3.74950298,5.61904762 C3.58250497,5.61904762 3.4473161,5.66300366 3.34393638,5.76556777 C3.22465209,5.86080586 3.16898608,5.98534799 3.16898608,6.13919414 C3.16898608,6.28571429 3.22465209,6.41025641 3.34393638,6.51282051 C3.4473161,6.61538462 3.58250497,6.66666667 3.74950298,6.66666667 C3.90854871,6.66666667 4.05168986,6.61538462 4.17097416,6.52014652 C4.28230616,6.41758242 4.33797217,6.29304029 4.33797217,6.13919414 C4.33797217,5.98534799 4.28230616,5.86080586 4.17097416,5.76556777 C4.05964215,5.66300366 3.91650099,5.61904762 3.74950298,5.61904762 L3.74950298,5.61904762 Z" id="?" fill="#FFFFFF"></path>
            </g>
        </g>
    </g>
</svg>