<?xml version="1.0" encoding="UTF-8" standalone="no"?>
<svg width="48px" height="48px" viewBox="0 0 48 48" version="1.1" xmlns="http://www.w3.org/2000/svg" xmlns:xlink="http://www.w3.org/1999/xlink" xmlns:sketch="http://www.bohemiancoding.com/sketch/ns">
    <!-- Generator: Sketch 3.4.1 (15681) - http://www.bohemiancoding.com/sketch -->
    <title>product_icon_safemoney</title>
    <desc>Created with Sketch.</desc>
    <defs></defs>
    <g id="Page-1" stroke="none" stroke-width="1" fill="none" fill-rule="evenodd" sketch:type="MSPage">
        <g id="product_icon_safemoney" sketch:type="MSArtboardGroup">
            <rect id="Rectangle-142-Copy" stroke="#000000" stroke-linecap="round" stroke-linejoin="round" sketch:type="MSShapeGroup" x="6" y="4" width="28" height="40" rx="1"></rect>
            <rect id="Rectangle-142-Copy" stroke="#000000" stroke-linecap="round" stroke-linejoin="round" sketch:type="MSShapeGroup" x="10" y="8" width="20" height="8"></rect>
            <path d="M10,20 L14,20 L14,24 L10,24 L10,20 Z M18,20 L22,20 L22,24 L18,24 L18,20 Z M26,20 L30,20 L30,24 L26,24 L26,20 Z M10,28 L14,28 L14,32 L10,32 L10,28 Z M18,28 L22,28 L22,32 L18,32 L18,28 Z M26,28 L30,28 L30,32 L26,32 L26,28 Z M10,36 L14,36 L14,40 L10,40 L10,36 Z M18,36 L22,36 L22,40 L18,40 L18,36 Z M26,36 L30,36 L30,40 L26,40 L26,36 Z" id="Rectangle-142-Copy" stroke="#000000" stroke-linecap="round" stroke-linejoin="round" fill="#000000" sketch:type="MSShapeGroup"></path>
            <circle id="Oval-50" stroke="#000000" stroke-linecap="square" fill="#FFFFFF" sketch:type="MSShapeGroup" cx="32" cy="31" r="13"></circle>
            <circle id="Oval-50-Copy" fill="#FFDE00" sketch:type="MSShapeGroup" cx="32" cy="31" r="10"></circle>
            <text id="保" sketch:type="MSTextLayer" font-family="PingFang SC" font-size="12" font-weight="260" fill="#000000">
                <tspan x="26" y="35">保</tspan>
            </text>
        </g>
    </g>
</svg>