<?xml version="1.0" encoding="UTF-8" standalone="no"?>
<svg width="48px" height="48px" viewBox="0 0 48 48" version="1.1" xmlns="http://www.w3.org/2000/svg" xmlns:xlink="http://www.w3.org/1999/xlink" xmlns:sketch="http://www.bohemiancoding.com/sketch/ns">
    <!-- Generator: Sketch 3.4.1 (15681) - http://www.bohemiancoding.com/sketch -->
    <title>product_icon_donate</title>
    <desc>Created with Sketch.</desc>
    <defs></defs>
    <g id="Page-1" stroke="none" stroke-width="1" fill="none" fill-rule="evenodd" sketch:type="MSPage">
        <g id="product_icon_donate" sketch:type="MSArtboardGroup">
            <rect id="Rectangle-142-Copy" stroke="#000000" stroke-linecap="round" stroke-linejoin="round" sketch:type="MSShapeGroup" x="6" y="4" width="28" height="40" rx="1"></rect>
            <rect id="Rectangle-142-Copy" stroke="#000000" stroke-linecap="round" stroke-linejoin="round" sketch:type="MSShapeGroup" x="10" y="8" width="20" height="8"></rect>
            <path d="M10,20 L14,20 L14,24 L10,24 L10,20 Z M18,20 L22,20 L22,24 L18,24 L18,20 Z M26,20 L30,20 L30,24 L26,24 L26,20 Z M10,28 L14,28 L14,32 L10,32 L10,28 Z M18,28 L22,28 L22,32 L18,32 L18,28 Z M26,28 L30,28 L30,32 L26,32 L26,28 Z M10,36 L14,36 L14,40 L10,40 L10,36 Z M18,36 L22,36 L22,40 L18,40 L18,36 Z M26,36 L30,36 L30,40 L26,40 L26,36 Z" id="Rectangle-142-Copy" stroke="#000000" stroke-linecap="round" stroke-linejoin="round" fill="#000000" sketch:type="MSShapeGroup"></path>
            <circle id="Oval-50" stroke="#000000" stroke-linecap="square" fill="#FFFFFF" sketch:type="MSShapeGroup" cx="32" cy="31" r="13"></circle>
            <path d="M32,38.3111111 L30.88,37.2222222 C26.72,33.6444444 24,31.2333333 24,28.2777778 C24,25.8666667 25.92,24 28.4,24 C29.76,24 31.12,24.6222222 32,25.6333333 C32.88,24.6222222 34.24,24 35.6,24 C38.08,24 40,25.8666667 40,28.2777778 C40,31.2333333 37.28,33.6444444 33.12,37.2222222 L32,38.3111111 L32,38.3111111 Z" id="Shape" fill="#E74C3C" sketch:type="MSShapeGroup"></path>
        </g>
    </g>
</svg>