<?xml version="1.0" encoding="UTF-8" standalone="no"?>
<svg width="20px" height="18px" viewBox="0 0 20 18" version="1.1" xmlns="http://www.w3.org/2000/svg" xmlns:xlink="http://www.w3.org/1999/xlink" xmlns:sketch="http://www.bohemiancoding.com/sketch/ns">
    <!-- Generator: Sketch 3.3.3 (12072) - http://www.bohemiancoding.com/sketch -->
    <title>Shape</title>
    <desc>Created with Sketch.</desc>
    <defs></defs>
    <g id="Page-1" stroke="none" stroke-width="1" fill="none" fill-rule="evenodd" sketch:type="MSPage">
        <g id="个人设置" sketch:type="MSArtboardGroup" transform="translate(-17.000000, -296.000000)" fill="#999999">
            <g id="Group-Copy-5" sketch:type="MSLayerGroup" transform="translate(0.000000, 281.000000)">
                <path d="M18.8181818,24 C18.8181818,19.05 22.9090909,15 27.9090909,15 C32.9090909,15 37,19.05 37,24 C37,28.95 32.9090909,33 27.9090909,33 C24.3455517,33 21.2437875,30.9427925 19.7556855,27.968746 L20.4155961,27.2428443 C21.6850004,30.0955889 24.5720837,32.1 27.9090909,32.1 C32.4090909,32.1 36.0909091,28.455 36.0909091,24 C36.0909091,19.545 32.4090909,15.9 27.9090909,15.9 C23.4090909,15.9 19.7272727,19.545 19.7272727,24 L18.8181818,24 Z M17,24 L21.5454545,24 L19.2727273,26.7 L17,24 Z M27.0999351,24.9 L27,24.9 L27,19.5 L28.8181818,19.5 L28.8181818,24.0726623 L31.5161842,26.7706648 L30.243392,28.043457 L27.0999351,24.9 Z" id="Shape" sketch:type="MSShapeGroup"></path>
            </g>
        </g>
    </g>
</svg>