<?xml version="1.0" encoding="UTF-8" standalone="no"?>
<svg width="38px" height="29px" viewBox="0 0 38 29" version="1.1" xmlns="http://www.w3.org/2000/svg" xmlns:xlink="http://www.w3.org/1999/xlink" xmlns:sketch="http://www.bohemiancoding.com/sketch/ns">
    <!-- Generator: Sketch 3.3.3 (12072) - http://www.bohemiancoding.com/sketch -->
    <title>photo-camera-4-icon</title>
    <desc>Created with Sketch.</desc>
    <defs></defs>
    <g id="Page-1" stroke="none" stroke-width="1" fill="none" fill-rule="evenodd" sketch:type="MSPage">
        <g id="港股充值_首次" sketch:type="MSArtboardGroup" transform="translate(-168.000000, -780.000000)" fill="#BEBEBE">
            <g id="Group-Copy" sketch:type="MSLayerGroup" transform="translate(0.000000, 304.000000)">
                <g id="最大可买-215,800--最大可卖-1-+-+5.73%-调整至25%-+-Group-Copy-3-+-Group-Copy-4" sketch:type="MSShapeGroup">
                    <g id="Group-Copy-3" transform="translate(0.000000, 386.000000)">
                        <g id="photo-camera-4-icon-+-Rectangle-39-+-上传图片" transform="translate(163.000000, 90.000000)">
                            <path d="M31.1322793,16.2940155 C31.1322793,18.9455687 28.9752196,21.1026284 26.3236664,21.1026284 C23.6722034,21.1026284 21.5151437,18.9455687 21.5151437,16.2940155 C21.5151437,13.6425525 23.6722034,11.4854928 26.3236664,11.4854928 C28.9752196,11.4854928 31.1322793,13.6425525 31.1322793,16.2940155 L31.1322793,16.2940155 Z M42.1704635,4.62375304 L42.1704635,28.7123786 L5,28.7123786 L5,4.62375304 L15.2145697,4.62375304 C16.2298105,4.62375304 17.1597036,4.0556404 17.6228909,3.15227183 L19.2395354,0 L33.1031259,0 L34.8911876,3.22850737 C35.3680882,4.08947274 36.2747047,4.62375304 37.25891,4.62375304 L42.1704635,4.62375304 L42.1704635,4.62375304 Z M14.4578079,9.87904308 C14.4578079,8.85757709 13.6297727,8.02954187 12.6083067,8.02954187 C11.5868407,8.02954187 10.7588055,8.85757709 10.7588055,9.87904308 C10.7588055,10.9005091 11.5868407,11.7285443 12.6083067,11.7285443 C13.6297727,11.7285443 14.4578079,10.9005091 14.4578079,9.87904308 L14.4578079,9.87904308 Z M35.2686662,16.2940155 C35.2686662,11.3618017 31.2559704,7.55588912 26.3237566,7.55588912 C21.3915429,7.55588912 17.378847,11.3618017 17.378847,16.2940155 C17.378847,21.2263195 21.3915429,25.2389251 26.3237566,25.2389251 C31.2559704,25.2389251 35.2686662,21.2262293 35.2686662,16.2940155 L35.2686662,16.2940155 Z M13.3300633,0.699201679 L7.42068132,0.699201679 L7.42068132,3.13513011 L13.3300633,3.13513011 L13.3300633,0.699201679 L13.3300633,0.699201679 Z" id="photo-camera-4-icon"></path>
                        </g>
                    </g>
                </g>
            </g>
        </g>
    </g>
</svg>