<?xml version="1.0" encoding="UTF-8" standalone="no"?>
<svg width="64px" height="54px" viewBox="0 0 64 54" version="1.1" xmlns="http://www.w3.org/2000/svg" xmlns:xlink="http://www.w3.org/1999/xlink" xmlns:sketch="http://www.bohemiancoding.com/sketch/ns">
    <!-- Generator: Sketch 3.4.1 (15681) - http://www.bohemiancoding.com/sketch -->
    <title>user-13-icon copy + user-13-icon copy 2 + user-13-icon copy 3</title>
    <desc>Created with Sketch.</desc>
    <defs></defs>
    <g id="Page-1" stroke="none" stroke-width="1" fill="none" fill-rule="evenodd" sketch:type="MSPage">
        <g id="H5:邀请佣金卡详情页_活动规则-Copy-2" sketch:type="MSArtboardGroup" transform="translate(-156.000000, -121.000000)">
            <g id="Group-Copy" sketch:type="MSLayerGroup" transform="translate(138.000000, 100.000000)">
                <g id="user-13-icon-copy-+-user-13-icon-copy-2-+-user-13-icon-copy-3" transform="translate(18.000000, 22.000000)" sketch:type="MSShapeGroup">
                    <path d="M59.68,37.2307692 C54.0747683,35.3942729 49.2729859,34.2925854 51.04,29.9230769 C58.6769663,15.5463589 53.4747088,8 45.28,8 C38.3778693,8 33.3036175,15.8356951 40.96,29.9230769 C42.7966795,34.3208976 37.8141216,35.4212039 32.32,37.2307692 C27.6103666,37.9097719 28.0070538,40.7842135 28,46 L64,46 C63.9928615,40.7842135 64.3895487,37.9097719 59.68,37.2307692 L59.68,37.2307692 Z" id="user-13-icon-copy" opacity="0.3" fill="#FFFFFF"></path>
                    <path d="M31.68,37.2307692 C26.0747683,35.3942729 21.2729859,34.2925854 23.04,29.9230769 C30.6769663,15.5463589 25.4747088,8 17.28,8 C10.3778693,8 5.30361753,15.8356951 12.96,29.9230769 C14.7966795,34.3208976 9.8141216,35.4212039 4.32,37.2307692 C-0.389633391,37.9097719 0.00705376442,40.7842135 0,46 L36,46 C35.9928615,40.7842135 36.3895487,37.9097719 31.68,37.2307692 L31.68,37.2307692 Z" id="user-13-icon-copy-2" opacity="0.3" fill="#FFFFFF"></path>
                    <path d="M50.7952743,38.8651707 C43.3970234,37.1587322 36.5101983,35.6643575 39.8455183,29.3762564 C49.9976,10.2361953 42.5364045,0 31.8159471,0 C20.8841753,0 13.6065684,10.6286631 23.7865631,29.3762564 C27.2217329,35.7027612 20.0756356,37.1952626 12.8364325,38.8651707 C5.44117896,40.5708598 6.01011667,44.4698721 6.01011667,51.544782 L57.6219648,51.544782 C57.6217774,44.4698721 58.1907151,40.5708598 50.7952743,38.8651707 L50.7952743,38.8651707 Z" id="user-13-icon-copy-3" stroke="#FFFFFF" stroke-width="2" fill="#E74C3C"></path>
                </g>
            </g>
        </g>
    </g>
</svg>