<?xml version="1.0" encoding="UTF-8" standalone="no"?>
<svg width="390px" height="227px" viewBox="0 0 390 227" version="1.1" xmlns="http://www.w3.org/2000/svg" xmlns:xlink="http://www.w3.org/1999/xlink" xmlns:sketch="http://www.bohemiancoding.com/sketch/ns">
    <!-- Generator: Sketch 3.3.3 (12072) - http://www.bohemiancoding.com/sketch -->
    <title>Group</title>
    <desc>Created with Sketch.</desc>
    <defs></defs>
    <g id="Page-1" stroke="none" stroke-width="1" fill="none" fill-rule="evenodd" sketch:type="MSPage">
        <g id="Cut" sketch:type="MSArtboardGroup">
            <g id="Group" sketch:type="MSLayerGroup" transform="translate(1.000000, 1.000000)">
                <g id="Group-Copy-5" sketch:type="MSShapeGroup">
                    <circle id="Oval-85" stroke="#000000" stroke-width="2" cx="32" cy="32" r="32"></circle>
                    <circle id="Oval-85-Copy-5" fill="" cx="32" cy="32" r="27.6504854"></circle>
                    <g id="Line-+-Line-Copy" transform="translate(30.446602, 4.349515)" stroke="#000000" stroke-width="2" stroke-linecap="round">
                        <path d="M0.621359223,0.26629681 L0.621359223,3.50593743" id="Line"></path>
                        <path d="M0.621359223,51.8391123 L0.621359223,55.078753" id="Line-Copy"></path>
                    </g>
                    <g id="Line-Copy-4-+-Line-Copy-2" transform="translate(31.279848, 32.621359) rotate(-270.000000) translate(-31.279848, -32.621359) translate(30.347810, 4.660194)" stroke="#000000" stroke-width="2" stroke-linecap="round">
                        <path d="M0.621359223,0.478184047 L0.621359223,3.71782466" id="Line-Copy-4"></path>
                        <path d="M0.621359223,52.0509996 L0.621359223,55.2906402" id="Line-Copy-2"></path>
                    </g>
                    <g id="Line-Copy-4-+-Line-Copy-2-Copy" transform="translate(30.886139, 31.797038) rotate(-315.000000) translate(-30.886139, -31.797038) translate(29.954100, 3.835873)" stroke="#000000" stroke-width="2" stroke-linecap="round">
                        <path d="M1.27303896,0.235976295 L1.27303896,3.47561691" id="Line-Copy-4"></path>
                        <path d="M1.27303896,52.0813201 L1.27303896,55.3209607" id="Line-Copy-2"></path>
                    </g>
                    <g id="Line-Copy-4-+-Line-Copy-2-Copy-Copy" transform="translate(31.040391, 31.946865) rotate(-225.000000) translate(-31.040391, -31.946865) translate(30.108353, 3.985700)" stroke="#000000" stroke-width="2" stroke-linecap="round">
                        <path d="M0.730432344,0.3147289 L0.730432344,3.55436952" id="Line-Copy-4"></path>
                        <path d="M0.730432344,52.1600727 L0.730432344,55.3997133" id="Line-Copy-2"></path>
                    </g>
                    <path d="M29.2038835,37.2815534 L45.3592233,8.0776699" id="Line" stroke="#000000" stroke-width="2" stroke-linecap="round"></path>
                    <circle id="Oval-85-Copy" stroke="#000000" stroke-width="2" fill="#FFDC2E" cx="32" cy="32" r="2.7961165"></circle>
                </g>
                <g id="￥-+-Oval-85-Copy-2-+-Oval-85-Copy-3" transform="translate(81.000000, 0.000000)" stroke-width="2" sketch:type="MSShapeGroup">
                    <circle id="Oval-85-Copy-2" stroke="#000000" cx="32" cy="32" r="32"></circle>
                    <path d="M32,60.3076923 C47.6339068,60.3076923 60.3076923,47.6339068 60.3076923,32 C60.3076923,16.3660932 47.6339068,3.69230769 32,3.69230769 C16.3660932,3.69230769 3.69230769,16.3660932 3.69230769,32 C3.69230769,47.6339068 16.3660932,60.3076923 32,60.3076923 Z" id="Oval-85-Copy-3" stroke="#FFD300"></path>
                    <g id="Group" transform="translate(23.384615, 19.076923)" stroke="#000000" stroke-linecap="round">
                        <path d="M8.92307692,11.8112882 L8.92307692,25.1128179" id="Line"></path>
                        <path d="M8.92307692,0.611970975 L17.5384615,11.0811944" id="Line-Copy-8" transform="translate(13.230769, 5.846583) scale(-1, 1) translate(-13.230769, -5.846583) "></path>
                        <path d="M0.307692308,0.611970975 L8.92307692,11.0811944" id="Line-Copy-9"></path>
                        <path d="M16.0270759,17.5576735 L1.52662722,17.5576735" id="Line-Copy-5"></path>
                        <path d="M17.1637157,11.4038274 L0.343195266,11.4038274" id="Line-Copy-6"></path>
                    </g>
                </g>
                <g id="Group-Copy-10" transform="translate(241.000000, 0.000000)" stroke="#000000" stroke-width="2" sketch:type="MSShapeGroup">
                    <path d="M133.542254,138.925849 L133.542254,144.876038" id="Line-Copy-10" stroke-linecap="round" fill="#FFFFFF"></path>
                    <path d="M12.7676056,138.925849 L12.7676056,144.876038" id="Line-Copy-11" stroke-linecap="round" fill="#FFFFFF"></path>
                    <rect id="Rectangle-269" x="0" y="10.0188679" width="147" height="128.783019" rx="6"></rect>
                    <path d="M8.62676056,23.4481132 L17.5985915,23.4481132" id="Line"></path>
                    <path d="M8.62676056,127.438679 L17.5985915,127.438679" id="Line-Copy-13"></path>
                    <path d="M132.852113,37.8147275 L132.852113,108.946949" id="Line"></path>
                    <path d="M20.9288448,2.55347554 C23.9274792,1.14322994 29.0517459,0 32.3603019,0 L114.587514,0 C117.902299,0 123.021948,1.14398769 126.018971,2.55347554 L144.226287,11.1163024 C145.729346,11.8231849 145.609834,12.3962264 143.945889,12.3962264 L3.00192717,12.3962264 C1.34400858,12.3962264 1.21845457,11.8231922 2.72152889,11.1163024 L20.9288448,2.55347554 Z" id="Rectangle-269-Copy" fill="#FFFFFF"></path>
                    <g id="Group-Copy-6" transform="translate(33.816901, 33.433962)">
                        <ellipse id="Oval-85" cx="40.028169" cy="39.9433962" rx="33.2960404" ry="33.2255251"></ellipse>
                        <ellipse id="Oval-85-Copy-4" cx="40.028169" cy="39.9433962" rx="39.3380282" ry="39.254717"></ellipse>
                        <g id="Group" transform="translate(9.937175, 10.604809)" stroke-linecap="round">
                            <g id="Line-+-Line-Copy" transform="translate(28.728768, 0.000000)">
                                <path d="M0.65206109,0.278862916 L0.65206109,3.67137681" id="Line"></path>
                                <path d="M0.65206109,54.2853143 L0.65206109,57.6778282" id="Line-Copy"></path>
                            </g>
                            <g id="Line-Copy-4-+-Line-Copy-2" transform="translate(29.614949, 29.318605) rotate(-270.000000) translate(-29.614949, -29.318605) translate(28.924808, 0.049737)">
                                <path d="M0.65206109,0.50074876 L0.65206109,3.89326266" id="Line-Copy-4"></path>
                                <path d="M0.65206109,54.5072001 L0.65206109,57.899714" id="Line-Copy-2"></path>
                            </g>
                            <g id="Line-Copy-4-+-Line-Copy-2-Copy" transform="translate(29.211803, 28.747862) rotate(-315.000000) translate(-29.211803, -28.747862) translate(28.176592, -0.521006)">
                                <path d="M1.37402061,0.247111626 L1.37402061,3.63962552" id="Line-Copy-4"></path>
                                <path d="M1.37402061,54.5389514 L1.37402061,57.9314653" id="Line-Copy-2"></path>
                            </g>
                            <g id="Line-Copy-4-+-Line-Copy-2-Copy-Copy" transform="translate(29.563827, 28.704743) rotate(-225.000000) translate(-29.563827, -28.704743) translate(28.873686, -0.564125)">
                                <path d="M0.766523602,0.329580436 L0.766523602,3.72209433" id="Line-Copy-4"></path>
                                <path d="M0.766523602,54.6214202 L0.766523602,58.0139341" id="Line-Copy-2"></path>
                            </g>
                        </g>
                        <g id="Group-Copy-3" transform="translate(39.518803, 39.709616) rotate(23.000000) translate(-39.518803, -39.709616) translate(9.842747, 9.752069)" stroke-linecap="round">
                            <g id="Line-+-Line-Copy" transform="translate(28.728768, 0.000000)">
                                <path d="M0.65206109,0.967542161 L0.65206109,4.36005606" id="Line"></path>
                                <path d="M0.65206109,54.9739935 L0.65206109,58.3665074" id="Line-Copy"></path>
                            </g>
                            <g id="Line-Copy-4-+-Line-Copy-2" transform="translate(29.614949, 29.662945) rotate(-270.000000) translate(-29.614949, -29.662945) translate(28.579737, 0.394077)">
                                <path d="M1.34220194,0.50074876 L1.34220194,3.89326266" id="Line-Copy-4"></path>
                                <path d="M1.34220194,54.5072001 L1.34220194,57.899714" id="Line-Copy-2"></path>
                            </g>
                            <g id="Line-Copy-4-+-Line-Copy-2-Copy" transform="translate(29.211803, 29.436541) rotate(-315.000000) translate(-29.211803, -29.436541) translate(28.176592, 0.167673)">
                                <path d="M1.37402061,0.247111626 L1.37402061,3.63962552" id="Line-Copy-4"></path>
                                <path d="M1.37402061,54.5389514 L1.37402061,57.9314653" id="Line-Copy-2"></path>
                            </g>
                            <g id="Line-Copy-4-+-Line-Copy-2-Copy-Copy" transform="translate(29.807828, 29.149938) rotate(-225.000000) translate(-29.807828, -29.149938) translate(28.772617, -0.118930)">
                                <path d="M1.45666445,0.329580436 L1.45666445,3.72209433" id="Line-Copy-4"></path>
                                <path d="M1.45666445,54.6214202 L1.45666445,58.0139341" id="Line-Copy-2"></path>
                            </g>
                        </g>
                        <path d="M47.3141812,52.5982138 C54.2947152,48.5765359 56.6864228,39.6694654 52.6562096,32.703715 C48.6259964,25.7379645 39.7000222,23.3513222 32.7194882,27.3730001 C25.7389542,31.394678 23.3472466,40.3017485 27.3774598,47.2674989 C31.407673,54.2332493 40.3336472,56.6198917 47.3141812,52.5982138 L47.3141812,52.5982138 Z" id="Oval-85-Copy" fill="#FFDC2E"></path>
                        <path d="M46.2600785,46.1944573 C49.7056506,42.7561823 49.7056506,37.181637 46.2600785,33.743362 C42.8145063,30.305087 37.2281301,30.305087 33.782558,33.743362 C30.3369858,37.181637 30.3369858,42.7561823 33.782558,46.1944573 C37.2281301,49.6327323 42.8145063,49.6327323 46.2600785,46.1944573 L46.2600785,46.1944573 L46.2600785,46.1944573 Z" id="Oval-85-Copy-6" fill="#FBFBFB"></path>
                        <path d="M48.863274,30.1763653 L39.9231321,40.1440409" id="Line-Copy-12" stroke-linecap="round" fill="#FFFFFF"></path>
                    </g>
                </g>
                <g id="￥-+-Oval-85-Copy-2-+-Oval-85-Copy-3-Copy-Copy" transform="translate(81.000000, 80.000000)" stroke="#000000" stroke-width="2" sketch:type="MSShapeGroup">
                    <path d="M61.2141775,21.158078 L61.2141775,21.158078 C56.8949215,9.11363413 45.3766758,0.498055453 31.8461538,0.498055453" id="Oval-85-Copy-4"></path>
                    <path d="M56.163917,23.1408084 L56.163917,23.1408084 C52.6382715,13.1101018 43.0819767,5.91918783 31.8461538,5.91918783" id="Oval-85-Copy-5" opacity="0.7"></path>
                    <path d="M50.4190414,25.36224 L50.4190414,25.36224 C47.7871168,17.6329897 40.4659339,12.073034 31.8461538,12.073034" id="Oval-85-Copy-6" opacity="0.4"></path>
                    <path d="M44.7984843,28.0083148 L44.7984843,28.0083148 C43.197512,22.3626174 38.0048095,18.2268801 31.8461538,18.2268801" id="Oval-85-Copy-7" opacity="0.2"></path>
                    <path d="M39.4190722,30.0624036 L39.4190722,30.0624036 C38.4728527,27.1229763 35.7155736,24.9961109 32.4615385,24.9961109" id="Oval-85-Copy-8" opacity="0.1"></path>
                    <path d="M32.3106796,63.9555864 C49.673112,63.9555864 64,49.6386407 64,32.2882572 C64,28.2040199 63.2600298,24.3085272 61.9126269,20.7269362 L32.3106807,32.2882573 C32.3106807,32.2882573 32.3106801,13.129436 32.3106796,0 C14.326888,0 0,14.3169457 0,32.2882572 C0,49.6386407 14.326888,63.9555864 32.3106796,63.9555864 Z" id="Oval-85-Copy-2"></path>
                </g>
                <g id="Group-Copy-13" transform="translate(161.000000, 160.000000)" stroke-width="2" sketch:type="MSShapeGroup">
                    <path d="M2.56186195,44.531746 C7.46622244,55.9766151 18.8843901,64 32.1875,64 C49.9641654,64 64.375,49.673112 64.375,32 C64.375,32 64.3750019,30.4411408 63.8134784,25.9302184 M62.6786817,21.7216321 C58.3721837,9.09049886 46.347662,0 32.1875,0 C14.4108346,0 0,14.326888 0,32 C0,32 0.0131225586,36.5391383 0.9765625,39.9180825" id="Oval-85" stroke="#000000" stroke-linecap="round"></path>
                    <path d="M42.5,14.9126214 L31.875,32.3106796" id="Line-Copy-3" stroke="#FFDC2E" stroke-linecap="round"></path>
                    <path d="M38.75,13.0485437 L31.875,32.3106796" id="Line-Copy-6" stroke="#FFDC2E" stroke-linecap="round" opacity="0.6"></path>
                    <path d="M34.375,11.8058252 L31.875,34.1747573" id="Line-Copy-7" stroke="#FFDC2E" stroke-linecap="round" opacity="0.3"></path>
                    <path d="M30.625,11.8058252 L31.875,32.3106796" id="Line-Copy-8" stroke="#FFDC2E" stroke-linecap="round" opacity="0.2"></path>
                    <path d="M31.25,32.3106796 L46.25,17.3980583" id="Line-Copy-5" stroke="#000000" stroke-linecap="round"></path>
                    <ellipse id="Oval-85-Copy-3" stroke="#000000" fill="#FFDC2E" cx="31.875" cy="31.8561893" rx="2.5" ry="2.48543689"></ellipse>
                    <g id="Line-+-Line-Copy" transform="translate(30.625000, 4.349515)" stroke="#000000" stroke-linecap="round">
                        <path d="M0.625,0.26629681 L0.625,3.50593743" id="Line"></path>
                        <path d="M0.625,51.8391123 L0.625,55.078753" id="Line-Copy"></path>
                    </g>
                    <g id="Line-Copy-4-+-Line-Copy-2" transform="translate(31.669064, 32.419753) rotate(-270.000000) translate(-31.669064, -32.419753) translate(30.934352, 4.663324)" stroke="#000000" stroke-linecap="round">
                        <path d="M0.625,0.478184047 L0.625,3.71782466" id="Line-Copy-4"></path>
                        <path d="M0.625,52.0509996 L0.625,55.2906402" id="Line-Copy-2"></path>
                    </g>
                    <g id="Line-Copy-4-+-Line-Copy-2-Copy" transform="translate(31.511280, 31.949078) rotate(-315.000000) translate(-31.511280, -31.949078) translate(30.776568, 4.192649)" stroke="#000000" stroke-linecap="round">
                        <path d="M0.655498175,0.235976295 L0.655498175,3.47561691" id="Line-Copy-4"></path>
                        <path d="M0.655498175,52.0813201 L0.655498175,55.3209607" id="Line-Copy-2"></path>
                    </g>
                    <g id="Line-Copy-4-+-Line-Copy-2-Copy-Copy" transform="translate(31.511280, 31.949078) rotate(-225.000000) translate(-31.511280, -31.949078) translate(30.776568, 4.192649)" stroke="#000000" stroke-linecap="round">
                        <path d="M0.734712221,0.3147289 L0.734712221,3.55436952" id="Line-Copy-4"></path>
                        <path d="M0.734712221,52.1600727 L0.734712221,55.3997133" id="Line-Copy-2"></path>
                    </g>
                    <path d="M1.16821289,49.5649272 L2.14538574,43.529733 L7.23266602,46.3021845" id="Path-159" stroke="#000000" stroke-linecap="round" stroke-linejoin="round"></path>
                    <path d="M64.2822266,16.8112864 L63.3050537,22.8464806 L58.2177734,20.0740291" id="Path-159-Copy" stroke="#000000" stroke-linecap="round" stroke-linejoin="round"></path>
                </g>
                <g id="Group-Copy-8" transform="translate(161.000000, 80.000000)" stroke="#000000" stroke-width="2" sketch:type="MSShapeGroup">
                    <circle id="Oval-85" cx="32" cy="32" r="32"></circle>
                    <path d="M32,60.3076923 C47.6339068,60.3076923 60.3076923,47.6339068 60.3076923,32 C60.3076923,16.3660932 47.6339068,3.69230769 32,3.69230769 C16.3660932,3.69230769 3.69230769,16.3660932 3.69230769,32 C3.69230769,47.6339068 16.3660932,60.3076923 32,60.3076923 Z" id="Oval-85-Copy-11" opacity="0.1"></path>
                    <path d="M31.2558139,33.4883726 L43.9069773,10.4186047" id="Line" stroke-linecap="round"></path>
                    <circle id="Oval-85-Copy" fill="#FFD300" cx="32" cy="32" r="2.7961165"></circle>
                </g>
                <g id="￥-+-Oval-85-Copy-2-+-Oval-85-Copy-3-Copy" transform="translate(81.000000, 160.000000)" stroke-width="2" sketch:type="MSShapeGroup">
                    <path d="M61.1142164,20.8834196 L61.1142164,20.8834196 C56.7193166,8.98287002 45.2736025,0.498055453 31.8461538,0.498055453" id="Oval-85-Copy-4" stroke="#FFD300"></path>
                    <path d="M56.1844749,23.1995253 L56.1844749,23.1995253 C52.6755379,13.1381761 43.1038884,5.91918783 31.8461538,5.91918783" id="Oval-85-Copy-5" stroke="#FFD300" opacity="0.7"></path>
                    <path d="M50.519199,25.6644549 L50.519199,25.6644549 C47.977049,17.7783347 40.5778736,12.073034 31.8461538,12.073034" id="Oval-85-Copy-6" stroke="#FFD300" opacity="0.4"></path>
                    <path d="M44.6553068,27.5367414 L44.6553068,27.5367414 C42.9053725,22.1338035 37.8320186,18.2268801 31.8461538,18.2268801" id="Oval-85-Copy-7" stroke="#FFD300" opacity="0.2"></path>
                    <path d="M39.3034557,29.7309699 L39.3034557,29.7309699 C38.2626265,26.9644384 35.5919463,24.9961109 32.4615385,24.9961109" id="Oval-85-Copy-8" stroke="#FFD300" opacity="0.1"></path>
                    <path d="M32.3106796,63.9555864 C49.673112,63.9555864 64,49.6386407 64,32.2882572 C64,28.2040199 63.2600298,24.3085272 61.9126269,20.7269362 L32.3106807,32.2882573 C32.3106807,32.2882573 32.3106801,13.129436 32.3106796,0 C14.326888,0 0,14.3169457 0,32.2882572 C0,49.6386407 14.326888,63.9555864 32.3106796,63.9555864 Z" id="Oval-85-Copy-2" stroke="#000000"></path>
                </g>
                <g id="Group-Copy-7" transform="translate(0.000000, 146.000000)" stroke-width="2" sketch:type="MSShapeGroup">
                    <path d="M41.5363614,16.2092059 C38.6116015,15.3043739 35.5127645,14.8185967 32.3106796,14.8185967 C14.326888,14.8185967 0,29.1007132 0,47.0283054 C0,57.9577838 5.71278905,67.6806335 14.4517346,73.3626525 L14.4517346,73.3626525 M20.5285552,76.4571539 C24.1709311,77.8514032 28.1425863,78.6185967 32.3106796,78.6185967 C49.673112,78.6185967 64,64.3364802 64,47.0283054 C64,34.9408358 57.4870352,24.5105896 47.9219807,18.9977709" id="Oval-85" stroke="#000000"></path>
                    <path d="M23.0720095,73.2656638 C25.9517187,74.2284199 29.0453483,74.75193 32.2730215,74.75193 C47.5309166,74.75193 60.1212121,62.2009792 60.1212121,46.990765 C60.1212121,36.187205 54.2007221,26.8901134 45.5594644,22.1136836 M39.0976081,19.5444776 C36.9102156,18.9830555 34.6232651,18.6852634 32.2730215,18.6852634 C16.4690834,18.6852634 3.87878788,31.2362142 3.87878788,46.990765 C3.87878788,56.5882188 8.8915526,65.1268998 16.5614365,70.1217733 L16.5614365,70.1217733" id="Oval-85-Copy" stroke="#FFD300" opacity="0.5"></path>
                    <path d="M46.5694444,15.3359144 L22.7979798,46.0835924 L39.2487374,46.0835924 L15.1414141,77.4643866" id="Path-158" stroke="#000000" stroke-linecap="round" stroke-linejoin="round"></path>
                </g>
                <g id="-" transform="translate(161.000000, 0.000000)" stroke-width="2" sketch:type="MSShapeGroup">
                    <circle id="Oval-85" stroke="#000000" cx="32" cy="32" r="32"></circle>
                    <circle id="Oval-85-Copy-7" stroke="#FFD300" cx="32" cy="32" r="28.8932039"></circle>
                    <path d="M16.1081616,40.9426761 C19.661878,45.8757538 25.4558814,49.7087379 32,49.7087379 C38.7978247,49.7087379 44.786245,45.6219066 48.2949676,40.3612558" id="Oval-85-Copy-8" stroke="#333333" stroke-linecap="round"></path>
                    <path d="M23.6116505,24.3854101 C22.783197,23.2353956 21.4324808,22.3418383 19.9068954,22.3418383 C18.3221652,22.3418383 16.926126,23.2945732 16.1081616,24.5209526" id="Oval-85-Copy-11" stroke="#333333" stroke-linecap="round"></path>
                    <path d="M47.8446602,24.3854101 C47.0162067,23.2353956 45.6654905,22.3418383 44.1399051,22.3418383 C42.5551749,22.3418383 41.1591357,23.2945732 40.3411713,24.5209526" id="Oval-85-Copy-12" stroke="#333333" stroke-linecap="round"></path>
                </g>
                <g id="Group-Copy-9" transform="translate(0.000000, 80.000000)" stroke-width="2" sketch:type="MSShapeGroup">
                    <path d="M55.5820578,10.4838978 C49.7763196,4.02406756 41.4414982,0 32.2555231,0 C14.302431,0 0,14.326888 0,32.3106796 C0,49.673112 14.302431,64 32.2555231,64 L32.2555231,64 C49.5883167,64 63.8907477,49.673112 63.8907477,32.3106796 C63.8907477,26.7829471 62.53948,21.6007121 60.1642861,17.0738316" id="Oval-85-Copy-9" stroke="#000000"></path>
                    <path d="M52.9348308,13.0454905 C47.762796,7.30224732 40.2749386,3.69230769 31.9453738,3.69230769 C16.3381552,3.69230769 3.68600467,16.3660932 3.68600467,32 C3.68600467,47.6339068 16.3381552,60.3076923 31.9453738,60.3076923 L31.9453738,60.3076923 C47.5525925,60.3076923 60.204743,47.6339068 60.204743,32 C60.204743,27.6637813 59.2314319,23.5552802 57.4917152,19.8817563" id="Oval-85-Copy-10" stroke="#FFD300"></path>
                    <path d="M17.0130591,28.4491279 L32.3168317,43.3444767 L63.8994537,6.6119186" id="Path-242" stroke="#000000" stroke-linecap="round" stroke-linejoin="round"></path>
                </g>
            </g>
        </g>
    </g>
</svg>