<?xml version="1.0" encoding="UTF-8" standalone="no"?>
<svg width="65px" height="118px" viewBox="0 0 65 118" version="1.1" xmlns="http://www.w3.org/2000/svg" xmlns:xlink="http://www.w3.org/1999/xlink" xmlns:sketch="http://www.bohemiancoding.com/sketch/ns">
    <!-- Generator: Sketch 3.4.1 (15681) - http://www.bohemiancoding.com/sketch -->
    <title>Shape</title>
    <desc>Created with Sketch.</desc>
    <defs></defs>
    <g id="Page-1" stroke="none" stroke-width="1" fill="none" fill-rule="evenodd" sketch:type="MSPage">
        <g id="h5_我是新手" sketch:type="MSArtboardGroup" transform="translate(-156.000000, -479.000000)" fill="#FFFFFF">
            <g id="APP投资步骤-+-Shape" sketch:type="MSLayerGroup" transform="translate(128.000000, 415.000000)">
                <path d="M38.251011,64 C32.6031027,64 28,68.5869136 28,74.2341374 L28,171.763209 C28,177.408075 32.6031027,182 38.251011,182 L82.1760562,182 C87.8140827,182 92.4146781,177.408075 92.4146781,171.763209 L92.4146781,74.2341374 C92.4146781,68.5869136 87.8142302,64 82.1760562,64 L38.251011,64 L38.251011,64 Z M86.1881741,161.405691 L34.2315185,161.405691 L34.2315185,84.5943091 L86.1880266,84.5943091 L86.1880266,161.405691 L86.1881741,161.405691 Z M54.9209978,171.257745 C54.9209978,168.340381 57.2921635,165.965481 60.2037256,165.965481 C63.1313638,165.965481 65.5149185,168.340381 65.5149185,171.257745 C65.5149185,174.184985 63.1313637,176.564897 60.2037256,176.564897 C57.2920161,176.564897 54.9209978,174.184985 54.9209978,171.257745 L54.9209978,171.257745 Z M65.3001759,74.3673947 C65.9688868,74.3673947 66.5091356,74.904994 66.5091356,75.5708386 C66.5091356,76.2219424 65.9688868,76.7595415 65.3001759,76.7595415 L55.1257113,76.7595415 C54.4668821,76.7595415 53.9216186,76.2220898 53.9216186,75.5708386 C53.9216186,74.9049939 54.4668821,74.3673947 55.1257113,74.3673947 L65.3001759,74.3673947 L65.3001759,74.3673947 Z" id="Shape" sketch:type="MSShapeGroup"></path>
            </g>
        </g>
    </g>
</svg>