<?xml version="1.0" encoding="UTF-8" standalone="no"?>
<svg width="101px" height="97px" viewBox="0 0 101 97" version="1.1" xmlns="http://www.w3.org/2000/svg" xmlns:xlink="http://www.w3.org/1999/xlink" xmlns:sketch="http://www.bohemiancoding.com/sketch/ns">
    <!-- Generator: Sketch 3.4.1 (15681) - http://www.bohemiancoding.com/sketch -->
    <title>iconfont-touzizhiyin</title>
    <desc>Created with Sketch.</desc>
    <defs></defs>
    <g id="Page-1" stroke="none" stroke-width="1" fill="none" fill-rule="evenodd" sketch:type="MSPage">
        <g id="h5_我是新手" sketch:type="MSArtboardGroup" transform="translate(-128.000000, -179.000000)" fill="#FFFFFF">
            <g id="操盘侠如何赚钱？-+-iconfont-touzizhiyin" sketch:type="MSLayerGroup" transform="translate(108.000000, 115.000000)">
                <g id="iconfont-touzizhiyin" transform="translate(20.000000, 64.000000)" sketch:type="MSShapeGroup">
                    <g id="图形">
                        <path d="M100.77092,50.7489398 C99.9897581,42.5505783 95.8764238,34.6678983 88.9855096,28.9261461 C84.963357,25.5719297 80.3005086,22.9524551 75.294863,21.0484328 C74.6418173,21.9411888 73.9000135,22.7798872 73.0545628,23.5443145 C71.9332585,24.5555809 70.6763359,25.4287005 69.3059554,26.12417 C70.7551676,26.5582465 72.1475933,27.0514625 73.4883107,27.6239168 C74.8463413,28.205958 75.3736947,29.7152919 74.6195412,30.8991261 C73.9565692,31.9450447 72.5026248,32.3593694 71.3047971,31.8363524 C62.1833934,27.9394827 51.9998958,28.6693733 47.5316453,29.2812155 C46.2180515,29.4588657 44.9585895,28.6991742 44.653073,27.5348606 L44.653073,27.5152244 C44.2980414,26.1932434 45.2789951,24.8810805 46.7651417,24.6739759 C47.5783904,24.5554654 48.5593441,24.447004 49.6584877,24.3483608 C49.323193,24.0919346 49.0053265,23.8255749 48.6972707,23.544199 C47.1199425,22.1187235 45.8729458,20.4514911 45.0027952,18.5818899 C44.9141527,18.3895702 44.822971,18.1823502 44.7416,17.9849482 C43.3811457,18.1921683 42.0355805,18.4488255 40.7194474,18.7446397 C33.0620297,14.7096233 23.8742596,14.6995742 18.4102816,15.1829722 C16.0344784,15.3901923 14.6297028,17.6937544 15.6672123,19.642247 L20.2956657,28.2352969 C15.1522087,32.2999987 11.2655591,37.2624232 9.08435386,42.8070045 L3.43812786,42.7871372 C1.54281771,42.7773191 0,44.1781916 0,45.8949765 L0,57.3686629 C0,58.5327454 0.704869295,59.5885976 1.83852359,60.1212018 L9.16318578,63.583995 C12.2265453,71.2399342 18.5703692,77.8006333 26.93508,82.3288658 L26.93508,92.4906204 C26.93508,94.488319 28.7317061,96.1110812 30.935072,96.1110812 L41.1999407,96.1110812 C42.7870797,96.1110812 44.228905,95.2528619 44.8697163,93.9408146 L47.4402329,88.5837016 C49.6583724,88.8303097 51.9083679,88.9586383 54.2176893,88.9586383 C57.8529543,88.9586383 61.3846878,88.6428413 64.7783791,88.0560642 L64.7783791,92.4907358 C64.7783791,94.4884345 66.5725814,96.1111966 68.778371,96.1111966 L78.9963792,96.1111966 C80.4701759,96.1111966 81.8306302,95.3814215 82.5255734,94.1974717 C87.9673908,84.9433735 93.8749274,75.6500029 98.2396463,65.9521257 C100.448206,61.0487255 101.249105,55.8395774 100.77092,50.7489398 L100.77092,50.7489398 L100.77092,50.7489398 Z M27.5884719,48.203621 C24.741871,48.203621 22.445015,46.122064 22.445015,43.5422085 C22.445015,40.962353 24.741871,38.8806804 27.5884719,38.8806804 C30.4326491,38.8806804 32.7320443,40.962353 32.7320443,43.5422085 C32.7320443,46.122064 30.4326491,48.203621 27.5884719,48.203621 L27.5884719,48.203621 L27.5884719,48.203621 Z M55.8077136,24.1314381 C57.3726921,24.6937277 59.0855233,25.0045578 60.8797257,25.0045578 C61.7595716,25.0045578 62.6172568,24.9304021 63.4404315,24.7875196 C66.9400782,24.1956602 69.9666188,22.405066 71.990045,19.9089533 C73.670905,17.8370989 74.6639778,15.281962 74.6639778,12.5048201 C74.6763277,5.5937874 68.4927067,-3.55271368e-15 60.8797257,-3.55271368e-15 C53.2568186,-3.55271368e-15 47.0856628,5.5937874 47.0856628,12.5048201 C47.0856628,14.2954142 47.4971347,15.9923319 48.2538275,17.5412848 C49.7029244,20.5402007 52.436183,22.9227697 55.8077136,24.1314381 L55.8077136,24.1314381 L55.8077136,24.1314381 Z" id="Shape"></path>
                    </g>
                </g>
            </g>
        </g>
    </g>
</svg>