<?xml version="1.0" encoding="UTF-8" standalone="no"?>
<svg width="54px" height="19px" viewBox="0 0 54 19" version="1.1" xmlns="http://www.w3.org/2000/svg" xmlns:xlink="http://www.w3.org/1999/xlink">
    <!-- Generator: Sketch 3.6.1 (26313) - http://www.bohemiancoding.com/sketch -->
    <title>Group</title>
    <desc>Created with Sketch.</desc>
    <defs></defs>
    <g id="Page-1" stroke="none" stroke-width="1" fill="none" fill-rule="evenodd">
        <g id="Artboard-15" transform="translate(-3.000000, -1.000000)">
            <g id="Group">
                <rect id="Rectangle-178" x="0" y="0" width="20" height="20"></rect>
                <rect id="Rectangle-178-Copy" x="20" y="0" width="20" height="20"></rect>
                <rect id="Rectangle-178-Copy-2" x="40" y="0" width="20" height="20"></rect>
                <path d="M10,1 C8.02133333,1.05066667 6.37244444,1.74733333 5.05333333,3.09 C3.73422222,4.43266667 3.04977778,6.111 3,8.125 C3.28622222,10.3416667 4.45288889,12.8116667 6.5,15.535 C8.54711111,18.2583333 9.71377778,19.7466667 10,20 C10.2862222,19.7466667 11.4528889,18.2583333 13.5,15.535 C15.5471111,12.8116667 16.7137778,10.3416667 17,8.125 C16.9502222,6.111 16.2657778,4.43266667 14.9466667,3.09 C13.6275556,1.74733333 11.9786667,1.05066667 10,1 L10,1 Z M4.15733333,8.125 C4.19466667,6.44033333 4.764,5.0375 5.86533333,3.9165 C6.96666667,2.7955 8.34488889,2.216 10,2.178 C11.6426667,2.216 13.0146667,2.7955 14.116,3.9165 C15.2173333,5.0375 15.7866667,6.44033333 15.824,8.125 C15.5875556,9.987 14.62,12.0801667 12.9213333,14.4045 C11.2226667,16.7288333 10.2488889,17.9986667 10,18.214 C9.75111111,17.9986667 8.77733333,16.7288333 7.07866667,14.4045 C5.38,12.0801667 4.40622222,9.987 4.15733333,8.125 L4.15733333,8.125 Z M10,4.553 C9.00444444,4.57833333 8.17688889,4.92666667 7.51733333,5.598 C6.85777778,6.26933333 6.51555556,7.11166667 6.49066667,8.125 C6.51555556,9.12566667 6.85777778,9.96166667 7.51733333,10.633 C8.17688889,11.3043333 9.00444444,11.6526667 10,11.678 C10.9831111,11.6526667 11.8044444,11.3043333 12.464,10.633 C13.1235556,9.96166667 13.4657778,9.12566667 13.4906667,8.125 C13.4657778,7.11166667 13.1235556,6.26933333 12.464,5.598 C11.8044444,4.92666667 10.9831111,4.57833333 10,4.553 L10,4.553 Z M10,10.5 C9.34044444,10.4873333 8.78977778,10.2561667 8.348,9.8065 C7.90622222,9.35683333 7.67911111,8.79633333 7.66666667,8.125 C7.67911111,7.45366667 7.90622222,6.89316667 8.348,6.4435 C8.78977778,5.99383333 9.34044444,5.76266667 10,5.75 C10.6595556,5.76266667 11.2102222,5.99383333 11.652,6.4435 C12.0937778,6.89316667 12.3208889,7.45366667 12.3333333,8.125 C12.3208889,8.79633333 12.0937778,9.35683333 11.652,9.8065 C11.2102222,10.2561667 10.6595556,10.4873333 10,10.5 L10,10.5 Z" id="Shape-Copy" fill="#17549A"></path>
                <path d="M30,1 C28.0213333,1.05066667 26.3724444,1.74733333 25.0533333,3.09 C23.7342222,4.43266667 23.0497778,6.111 23,8.125 C23.2862222,10.3416667 24.4528889,12.8116667 26.5,15.535 C28.5471111,18.2583333 29.7137778,19.7466667 30,20 C30.2862222,19.7466667 31.4528889,18.2583333 33.5,15.535 C35.5471111,12.8116667 36.7137778,10.3416667 37,8.125 C36.9502222,6.111 36.2657778,4.43266667 34.9466667,3.09 C33.6275556,1.74733333 31.9786667,1.05066667 30,1 L30,1 Z M24.1573333,8.125 C24.1946667,6.44033333 24.764,5.0375 25.8653333,3.9165 C26.9666667,2.7955 28.3448889,2.216 30,2.178 C31.6426667,2.216 33.0146667,2.7955 34.116,3.9165 C35.2173333,5.0375 35.7866667,6.44033333 35.824,8.125 C35.5875556,9.987 34.62,12.0801667 32.9213333,14.4045 C31.2226667,16.7288333 30.2488889,17.9986667 30,18.214 C29.7511111,17.9986667 28.7773333,16.7288333 27.0786667,14.4045 C25.38,12.0801667 24.4062222,9.987 24.1573333,8.125 L24.1573333,8.125 Z M30,4.553 C29.0044444,4.57833333 28.1768889,4.92666667 27.5173333,5.598 C26.8577778,6.26933333 26.5155556,7.11166667 26.4906667,8.125 C26.5155556,9.12566667 26.8577778,9.96166667 27.5173333,10.633 C28.1768889,11.3043333 29.0044444,11.6526667 30,11.678 C30.9831111,11.6526667 31.8044444,11.3043333 32.464,10.633 C33.1235556,9.96166667 33.4657778,9.12566667 33.4906667,8.125 C33.4657778,7.11166667 33.1235556,6.26933333 32.464,5.598 C31.8044444,4.92666667 30.9831111,4.57833333 30,4.553 L30,4.553 Z M30,10.5 C29.3404444,10.4873333 28.7897778,10.2561667 28.348,9.8065 C27.9062222,9.35683333 27.6791111,8.79633333 27.6666667,8.125 C27.6791111,7.45366667 27.9062222,6.89316667 28.348,6.4435 C28.7897778,5.99383333 29.3404444,5.76266667 30,5.75 C30.6595556,5.76266667 31.2102222,5.99383333 31.652,6.4435 C32.0937778,6.89316667 32.3208889,7.45366667 32.3333333,8.125 C32.3208889,8.79633333 32.0937778,9.35683333 31.652,9.8065 C31.2102222,10.2561667 30.6595556,10.4873333 30,10.5 L30,10.5 Z" id="Shape-Copy" fill="#DC8C01"></path>
                <path d="M50,1 C48.0213333,1.05066667 46.3724444,1.74733333 45.0533333,3.09 C43.7342222,4.43266667 43.0497778,6.111 43,8.125 C43.2862222,10.3416667 44.4528889,12.8116667 46.5,15.535 C48.5471111,18.2583333 49.7137778,19.7466667 50,20 C50.2862222,19.7466667 51.4528889,18.2583333 53.5,15.535 C55.5471111,12.8116667 56.7137778,10.3416667 57,8.125 C56.9502222,6.111 56.2657778,4.43266667 54.9466667,3.09 C53.6275556,1.74733333 51.9786667,1.05066667 50,1 L50,1 Z M44.1573333,8.125 C44.1946667,6.44033333 44.764,5.0375 45.8653333,3.9165 C46.9666667,2.7955 48.3448889,2.216 50,2.178 C51.6426667,2.216 53.0146667,2.7955 54.116,3.9165 C55.2173333,5.0375 55.7866667,6.44033333 55.824,8.125 C55.5875556,9.987 54.62,12.0801667 52.9213333,14.4045 C51.2226667,16.7288333 50.2488889,17.9986667 50,18.214 C49.7511111,17.9986667 48.7773333,16.7288333 47.0786667,14.4045 C45.38,12.0801667 44.4062222,9.987 44.1573333,8.125 L44.1573333,8.125 Z M50,4.553 C49.0044444,4.57833333 48.1768889,4.92666667 47.5173333,5.598 C46.8577778,6.26933333 46.5155556,7.11166667 46.4906667,8.125 C46.5155556,9.12566667 46.8577778,9.96166667 47.5173333,10.633 C48.1768889,11.3043333 49.0044444,11.6526667 50,11.678 C50.9831111,11.6526667 51.8044444,11.3043333 52.464,10.633 C53.1235556,9.96166667 53.4657778,9.12566667 53.4906667,8.125 C53.4657778,7.11166667 53.1235556,6.26933333 52.464,5.598 C51.8044444,4.92666667 50.9831111,4.57833333 50,4.553 L50,4.553 Z M50,10.5 C49.3404444,10.4873333 48.7897778,10.2561667 48.348,9.8065 C47.9062222,9.35683333 47.6791111,8.79633333 47.6666667,8.125 C47.6791111,7.45366667 47.9062222,6.89316667 48.348,6.4435 C48.7897778,5.99383333 49.3404444,5.76266667 50,5.75 C50.6595556,5.76266667 51.2102222,5.99383333 51.652,6.4435 C52.0937778,6.89316667 52.3208889,7.45366667 52.3333333,8.125 C52.3208889,8.79633333 52.0937778,9.35683333 51.652,9.8065 C51.2102222,10.2561667 50.6595556,10.4873333 50,10.5 L50,10.5 Z" id="Shape-Copy" fill="#601B9C"></path>
            </g>
        </g>
    </g>
</svg>